<svg xmlns="http://www.w3.org/2000/svg" width="1400" height="900" viewBox="0 0 1400 900" role="img" aria-label="Use case diagram — MediVisit">
  <defs>
    <marker id="arrow" markerWidth="10" markerHeight="10" refX="8" refY="3" orient="auto" markerUnits="strokeWidth">
      <path d="M0,0 L0,6 L9,3 z" fill="#172033" />
    </marker>
    <filter id="softShadow" x="-10%" y="-10%" width="120%" height="120%">
      <feDropShadow dx="0" dy="2" stdDeviation="2" flood-color="#0F172A" flood-opacity="0.08"/>
    </filter>
    <style>
      .title { font: 700 24px Arial, Helvetica, sans-serif; fill: #182233; }
      .subtitle { font: 500 14px Arial, Helvetica, sans-serif; fill: #5F6B7A; }
      .laneTitle { font: 700 18px Arial, Helvetica, sans-serif; fill: #182233; }
      .label { font: 600 16px Arial, Helvetica, sans-serif; fill: #182233; }
      .small { font: 500 13px Arial, Helvetica, sans-serif; fill: #5F6B7A; }
      .mono { font: 500 14px Arial, Helvetica, sans-serif; fill: #182233; }
      .shapeText { font: 600 15px Arial, Helvetica, sans-serif; fill: #182233; }
      .classTitle { font: 700 16px Arial, Helvetica, sans-serif; fill: #182233; }
      .classBody { font: 500 13px Arial, Helvetica, sans-serif; fill: #182233; }
    </style>
  </defs>
  <rect x="0" y="0" width="1400" height="900" rx="18" fill="#FFFFFF"/>

<text x="700.0" y="42.0" class="title" text-anchor="middle" dominant-baseline="middle">
<tspan x="700.0" dy="0">Use case diagram — MediVisit</tspan>
</text>
<rect x="245" y="95" width="900" height="690" rx="18" fill="#FFFFFF" stroke="#D8E1EC" stroke-width="2" stroke-dasharray="6 6"/>
<text x="695" y="125.0" class="laneTitle" text-anchor="middle" dominant-baseline="middle">
<tspan x="695" dy="0">MediVisit appointment booking system</tspan>
</text>
<circle cx="105" cy="275" r="12" fill="#FFFFFF" stroke="#172033" stroke-width="2"/>
<polyline points="105,287 105,325" fill="none" stroke="#172033" stroke-width="2" stroke-linecap="round" stroke-linejoin="round"/>
<polyline points="81,303 129,303" fill="none" stroke="#172033" stroke-width="2" stroke-linecap="round" stroke-linejoin="round"/>
<polyline points="105,325 83,357" fill="none" stroke="#172033" stroke-width="2" stroke-linecap="round" stroke-linejoin="round"/>
<polyline points="105,325 127,357" fill="none" stroke="#172033" stroke-width="2" stroke-linecap="round" stroke-linejoin="round"/>
<text x="105" y="385.0" class="label" text-anchor="middle" dominant-baseline="middle">
<tspan x="105" dy="0">Patient</tspan>
</text>
<circle cx="105" cy="610" r="12" fill="#FFFFFF" stroke="#172033" stroke-width="2"/>
<polyline points="105,622 105,660" fill="none" stroke="#172033" stroke-width="2" stroke-linecap="round" stroke-linejoin="round"/>
<polyline points="81,638 129,638" fill="none" stroke="#172033" stroke-width="2" stroke-linecap="round" stroke-linejoin="round"/>
<polyline points="105,660 83,692" fill="none" stroke="#172033" stroke-width="2" stroke-linecap="round" stroke-linejoin="round"/>
<polyline points="105,660 127,692" fill="none" stroke="#172033" stroke-width="2" stroke-linecap="round" stroke-linejoin="round"/>
<text x="105" y="720.0" class="label" text-anchor="middle" dominant-baseline="middle">
<tspan x="105" dy="0">Receptionist</tspan>
</text>
<circle cx="1270" cy="180" r="12" fill="#FFFFFF" stroke="#172033" stroke-width="2"/>
<polyline points="1270,192 1270,230" fill="none" stroke="#172033" stroke-width="2" stroke-linecap="round" stroke-linejoin="round"/>
<polyline points="1246,208 1294,208" fill="none" stroke="#172033" stroke-width="2" stroke-linecap="round" stroke-linejoin="round"/>
<polyline points="1270,230 1248,262" fill="none" stroke="#172033" stroke-width="2" stroke-linecap="round" stroke-linejoin="round"/>
<polyline points="1270,230 1292,262" fill="none" stroke="#172033" stroke-width="2" stroke-linecap="round" stroke-linejoin="round"/>
<text x="1270" y="290.0" class="label" text-anchor="middle" dominant-baseline="middle">
<tspan x="1270" dy="0">Doctor</tspan>
</text>
<circle cx="1270" cy="440" r="12" fill="#FFFFFF" stroke="#172033" stroke-width="2"/>
<polyline points="1270,452 1270,490" fill="none" stroke="#172033" stroke-width="2" stroke-linecap="round" stroke-linejoin="round"/>
<polyline points="1246,468 1294,468" fill="none" stroke="#172033" stroke-width="2" stroke-linecap="round" stroke-linejoin="round"/>
<polyline points="1270,490 1248,522" fill="none" stroke="#172033" stroke-width="2" stroke-linecap="round" stroke-linejoin="round"/>
<polyline points="1270,490 1292,522" fill="none" stroke="#172033" stroke-width="2" stroke-linecap="round" stroke-linejoin="round"/>
<text x="1270" y="550.0" class="label" text-anchor="middle" dominant-baseline="middle">
<tspan x="1270" dy="0">Administrator</tspan>
</text>
<rect x="1190" y="325" width="175" height="65" rx="10" fill="#F8FAFC" stroke="#64748B" stroke-width="2" filter="url(#softShadow)"/>
<text x="1278" y="358.0" class="shapeText" text-anchor="middle" dominant-baseline="middle">
<tspan x="1278" dy="0">Payment Gateway</tspan>
</text>
<rect x="1190" y="665" width="175" height="65" rx="10" fill="#F8FAFC" stroke="#64748B" stroke-width="2" filter="url(#softShadow)"/>
<text x="1278" y="698.0" class="shapeText" text-anchor="middle" dominant-baseline="middle">
<tspan x="1278" dy="0">Notification Service</tspan>
</text>
<ellipse cx="460" cy="205" rx="125" ry="38" fill="#EEF6FF" stroke="#2563EB" stroke-width="2" filter="url(#softShadow)"/>
<text x="460" y="205.0" class="shapeText" text-anchor="middle" dominant-baseline="middle">
<tspan x="460" dy="0">Search available slots</tspan>
</text>
<ellipse cx="460" cy="315" rx="125" ry="38" fill="#EEF6FF" stroke="#2563EB" stroke-width="2" filter="url(#softShadow)"/>
<text x="460" y="315.0" class="shapeText" text-anchor="middle" dominant-baseline="middle">
<tspan x="460" dy="0">Book appointment</tspan>
</text>
<ellipse cx="460" cy="425" rx="125" ry="38" fill="#EEF6FF" stroke="#2563EB" stroke-width="2" filter="url(#softShadow)"/>
<text x="460" y="425.0" class="shapeText" text-anchor="middle" dominant-baseline="middle">
<tspan x="460" dy="0">Cancel appointment</tspan>
</text>
<ellipse cx="460" cy="535" rx="125" ry="38" fill="#F5F3FF" stroke="#7C3AED" stroke-width="2" filter="url(#softShadow)"/>
<text x="460" y="535.0" class="shapeText" text-anchor="middle" dominant-baseline="middle">
<tspan x="460" dy="0">Receive confirmation</tspan>
</text>
<ellipse cx="460" cy="650" rx="125" ry="38" fill="#ECFDF5" stroke="#0F766E" stroke-width="2" filter="url(#softShadow)"/>
<text x="460" y="650.0" class="shapeText" text-anchor="middle" dominant-baseline="middle">
<tspan x="460" dy="0">Handle appointment</tspan>
</text>
<ellipse cx="740" cy="315" rx="125" ry="38" fill="#FFF7ED" stroke="#EA8A00" stroke-width="2" filter="url(#softShadow)"/>
<text x="740" y="315.0" class="shapeText" text-anchor="middle" dominant-baseline="middle">
<tspan x="740" dy="0">Pay prepayment</tspan>
</text>
<ellipse cx="970" cy="205" rx="125" ry="38" fill="#EEF6FF" stroke="#2563EB" stroke-width="2" filter="url(#softShadow)"/>
<text x="970" y="205.0" class="shapeText" text-anchor="middle" dominant-baseline="middle">
<tspan x="970" dy="0">Manage availability</tspan>
</text>
<ellipse cx="970" cy="315" rx="125" ry="38" fill="#EEF6FF" stroke="#2563EB" stroke-width="2" filter="url(#softShadow)"/>
<text x="970" y="315.0" class="shapeText" text-anchor="middle" dominant-baseline="middle">
<tspan x="970" dy="0">View schedule</tspan>
</text>
<ellipse cx="970" cy="425" rx="125" ry="38" fill="#EEF6FF" stroke="#2563EB" stroke-width="2" filter="url(#softShadow)"/>
<text x="970" y="425.0" class="shapeText" text-anchor="middle" dominant-baseline="middle">
<tspan x="970" dy="0">Manage users</tspan>
</text>
<ellipse cx="970" cy="535" rx="125" ry="38" fill="#EEF6FF" stroke="#2563EB" stroke-width="2" filter="url(#softShadow)"/>
<text x="970" y="535.0" class="shapeText" text-anchor="middle" dominant-baseline="middle">
<tspan x="970" dy="0">Configure services</tspan>
</text>
<polyline points="155,325 335,205" fill="none" stroke="#475569" stroke-width="1.7" stroke-linecap="round" stroke-linejoin="round"/>
<polyline points="155,325 335,315" fill="none" stroke="#475569" stroke-width="1.7" stroke-linecap="round" stroke-linejoin="round"/>
<polyline points="155,325 335,425" fill="none" stroke="#475569" stroke-width="1.7" stroke-linecap="round" stroke-linejoin="round"/>
<polyline points="155,325 335,535" fill="none" stroke="#475569" stroke-width="1.7" stroke-linecap="round" stroke-linejoin="round"/>
<polyline points="155,660 335,650" fill="none" stroke="#475569" stroke-width="1.7" stroke-linecap="round" stroke-linejoin="round"/>
<polyline points="1215,230 1095,205" fill="none" stroke="#475569" stroke-width="1.7" stroke-linecap="round" stroke-linejoin="round"/>
<polyline points="1215,230 1095,315" fill="none" stroke="#475569" stroke-width="1.7" stroke-linecap="round" stroke-linejoin="round"/>
<polyline points="1215,490 1095,425" fill="none" stroke="#475569" stroke-width="1.7" stroke-linecap="round" stroke-linejoin="round"/>
<polyline points="1215,490 1095,535" fill="none" stroke="#475569" stroke-width="1.7" stroke-linecap="round" stroke-linejoin="round"/>
<polyline points="1190,358 1085,358 1085,380 740,380 740,353" fill="none" stroke="#475569" stroke-width="1.7" stroke-linecap="round" stroke-linejoin="round"/>
<polyline points="1190,698 585,535" fill="none" stroke="#475569" stroke-width="1.7" stroke-linecap="round" stroke-linejoin="round"/>
<polyline points="585,315 635,315" fill="none" stroke="#64748B" stroke-width="1.6" stroke-linecap="round" stroke-linejoin="round" marker-end="url(#arrow)" stroke-dasharray="8 8"/>
<text x="610" y="298.0" class="small" text-anchor="middle" dominant-baseline="middle">
<tspan x="610" dy="0">&lt;&lt;include&gt;&gt;</tspan>
</text>
<polyline points="585,535 690,535" fill="none" stroke="#64748B" stroke-width="1.6" stroke-linecap="round" stroke-linejoin="round" marker-end="url(#arrow)" stroke-dasharray="8 8"/>
<text x="640" y="518.0" class="small" text-anchor="middle" dominant-baseline="middle">
<tspan x="640" dy="0">&lt;&lt;include&gt;&gt;</tspan>
</text>
</svg>
