<svg xmlns="http://www.w3.org/2000/svg" width="1400" height="900" viewBox="0 0 1400 900">
<defs>
<marker id="arrow" viewBox="0 0 10 10" refX="9" refY="5" markerWidth="8" markerHeight="8" orient="auto-start-reverse"><path d="M 0 0 L 10 5 L 0 10 z" fill="#111827"/></marker>
<filter id="shadow" x="-20%" y="-20%" width="140%" height="140%"><feDropShadow dx="0" dy="2" stdDeviation="3" flood-color="#94A3B8" flood-opacity="0.25"/></filter>
</defs>
<rect width="100%" height="100%" fill="#F8FAFC"/>
<text x="700.0" y="32.0" font-family="Inter, Arial, sans-serif" font-size="20" font-weight="700" fill="#0F172A" text-anchor="middle" dominant-baseline="middle"><tspan x="700.0" dy="0">Activity diagram — appointment booking process</tspan></text>
<rect x="40" y="70" width="1320" height="790" rx="16" fill="white" stroke="#CBD5E1"/>
<circle cx="700" cy="120" r="16" fill="#020617"/><rect x="545" y="170" width="310" height="74" rx="14" fill="#EFF6FF" stroke="#2563EB" stroke-width="2"/>
<text x="700.0" y="197.4" font-family="Inter, Arial, sans-serif" font-size="16" font-weight="500" fill="#0F172A" text-anchor="middle" dominant-baseline="middle"><tspan x="700.0" dy="0">Temporarily reserve</tspan><tspan x="700.0" dy="19.2">selected slot</tspan></text><polygon points="700,267.0 795.0,330 700,393.0 605.0,330" fill="#FFF7ED" stroke="#F59E0B" stroke-width="2"/>
<text x="700" y="321.0" font-family="Inter, Arial, sans-serif" font-size="15" font-weight="500" fill="#0F172A" text-anchor="middle" dominant-baseline="middle"><tspan x="700" dy="0">Is prepayment</tspan><tspan x="700" dy="18.0">required?</tspan></text><rect x="900" y="292" width="270" height="74" rx="14" fill="#EFF6FF" stroke="#2563EB" stroke-width="2"/>
<text x="1035.0" y="329.0" font-family="Inter, Arial, sans-serif" font-size="16" font-weight="500" fill="#0F172A" text-anchor="middle" dominant-baseline="middle"><tspan x="1035.0" dy="0">Authorize payment</tspan></text><polygon points="1035,397.0 1130.0,460 1035,523.0 940.0,460" fill="#FFF7ED" stroke="#F59E0B" stroke-width="2"/>
<text x="1035" y="451.0" font-family="Inter, Arial, sans-serif" font-size="15" font-weight="500" fill="#0F172A" text-anchor="middle" dominant-baseline="middle"><tspan x="1035" dy="0">Was payment</tspan><tspan x="1035" dy="18.0">successful?</tspan></text><rect x="545" y="610" width="310" height="74" rx="14" fill="#ECFDF5" stroke="#059669" stroke-width="2"/>
<text x="700.0" y="647.0" font-family="Inter, Arial, sans-serif" font-size="16" font-weight="500" fill="#0F172A" text-anchor="middle" dominant-baseline="middle"><tspan x="700.0" dy="0">Confirm appointment</tspan></text><rect x="545" y="745" width="310" height="74" rx="14" fill="#F5F3FF" stroke="#7C3AED" stroke-width="2"/>
<text x="700.0" y="772.4" font-family="Inter, Arial, sans-serif" font-size="16" font-weight="500" fill="#0F172A" text-anchor="middle" dominant-baseline="middle"><tspan x="700.0" dy="0">Send confirmation</tspan><tspan x="700.0" dy="19.2">message</tspan></text><rect x="890" y="650" width="270" height="74" rx="14" fill="#FFFBEB" stroke="#D97706" stroke-width="2"/>
<text x="1025.0" y="677.4" font-family="Inter, Arial, sans-serif" font-size="16" font-weight="500" fill="#0F172A" text-anchor="middle" dominant-baseline="middle"><tspan x="1025.0" dy="0">Release slot and show</tspan><tspan x="1025.0" dy="19.2">error</tspan></text><circle cx="700" cy="850" r="22" fill="white" stroke="#020617" stroke-width="4"/><circle cx="700" cy="850" r="13" fill="#020617"/><polyline points="700,136 700,170" fill="none" stroke="#111827" stroke-width="2.2" stroke-linejoin="round" stroke-linecap="round" marker-end="url(#arrow)"/><polyline points="700.0,244 700,270 700,267.0" fill="none" stroke="#111827" stroke-width="2.2" stroke-linejoin="round" stroke-linecap="round" marker-end="url(#arrow)"/><polyline points="700,393.0 700,610" fill="none" stroke="#111827" stroke-width="2.2" stroke-linejoin="round" stroke-linecap="round" marker-end="url(#arrow)"/>
<rect x="708" y="487" width="44" height="24" rx="8" fill="#F8FAFC" opacity="0.94"/>
<text x="730" y="500.0" font-family="Inter, Arial, sans-serif" font-size="13" font-weight="500" fill="#0F172A" text-anchor="middle" dominant-baseline="middle"><tspan x="730" dy="0">No</tspan></text><polyline points="795.0,330 900,330" fill="none" stroke="#111827" stroke-width="2.2" stroke-linejoin="round" stroke-linecap="round" marker-end="url(#arrow)"/>
<rect x="798" y="294" width="44" height="24" rx="8" fill="#F8FAFC" opacity="0.94"/>
<text x="820" y="307.0" font-family="Inter, Arial, sans-serif" font-size="13" font-weight="500" fill="#0F172A" text-anchor="middle" dominant-baseline="middle"><tspan x="820" dy="0">Yes</tspan></text><polyline points="1035.0,366 1035.0,397 1035,397" fill="none" stroke="#111827" stroke-width="2.2" stroke-linejoin="round" stroke-linecap="round" marker-end="url(#arrow)"/><polyline points="940.0,460 700,460 700,610" fill="none" stroke="#111827" stroke-width="2.2" stroke-linejoin="round" stroke-linecap="round" marker-end="url(#arrow)"/>
<rect x="813" y="425" width="44" height="24" rx="8" fill="#F8FAFC" opacity="0.94"/>
<text x="835" y="438.0" font-family="Inter, Arial, sans-serif" font-size="13" font-weight="500" fill="#0F172A" text-anchor="middle" dominant-baseline="middle"><tspan x="835" dy="0">Yes</tspan></text><polyline points="1035,523.0 1035,650" fill="none" stroke="#111827" stroke-width="2.2" stroke-linejoin="round" stroke-linecap="round" marker-end="url(#arrow)"/>
<rect x="1043" y="562" width="44" height="24" rx="8" fill="#F8FAFC" opacity="0.94"/>
<text x="1065" y="575.0" font-family="Inter, Arial, sans-serif" font-size="13" font-weight="500" fill="#0F172A" text-anchor="middle" dominant-baseline="middle"><tspan x="1065" dy="0">No</tspan></text><polyline points="890,687.0 330,687.0 330,207 545,207" fill="none" stroke="#111827" stroke-width="2.2" stroke-linejoin="round" stroke-linecap="round" marker-end="url(#arrow)" stroke-dasharray="8 6"/>
<rect x="433" y="637" width="44" height="24" rx="8" fill="#F8FAFC" opacity="0.94"/>
<text x="455" y="634.4" font-family="Inter, Arial, sans-serif" font-size="13" font-weight="500" fill="#0F172A" text-anchor="middle" dominant-baseline="middle"><tspan x="455" dy="0">Choose</tspan><tspan x="455" dy="15.6">another</tspan><tspan x="455" dy="15.6">slot</tspan></text><polyline points="700.0,684 700,745" fill="none" stroke="#111827" stroke-width="2.2" stroke-linejoin="round" stroke-linecap="round" marker-end="url(#arrow)"/><polyline points="700.0,819 700,826" fill="none" stroke="#111827" stroke-width="2.2" stroke-linejoin="round" stroke-linecap="round" marker-end="url(#arrow)"/></svg>
