<svg xmlns="http://www.w3.org/2000/svg" width="1450" height="900" viewBox="0 0 1450 900">
<defs>
<marker id="arrow" viewBox="0 0 10 10" refX="9" refY="5" markerWidth="8" markerHeight="8" orient="auto-start-reverse"><path d="M 0 0 L 10 5 L 0 10 z" fill="#111827"/></marker>
<filter id="shadow" x="-20%" y="-20%" width="140%" height="140%"><feDropShadow dx="0" dy="2" stdDeviation="3" flood-color="#94A3B8" flood-opacity="0.25"/></filter>
</defs>
<rect width="100%" height="100%" fill="#F8FAFC"/>
<text x="725.0" y="32.0" font-family="Inter, Arial, sans-serif" font-size="20" font-weight="700" fill="#0F172A" text-anchor="middle" dominant-baseline="middle"><tspan x="725.0" dy="0">Class diagram — domain model</tspan></text>
<rect x="110" y="130" width="300" height="230" rx="10" fill="white" stroke="#64748B" stroke-width="2"/>
<rect x="110" y="130" width="300" height="44" rx="10" fill="#F1F5F9" stroke="#64748B" stroke-width="2"/>
<text x="260.0" y="152.0" font-family="Inter, Arial, sans-serif" font-size="16" font-weight="700" fill="#0F172A" text-anchor="middle" dominant-baseline="middle"><tspan x="260.0" dy="0">Patient</tspan></text><line x1="110" y1="245" x2="410" y2="245" stroke="#CBD5E1"/>
<text x="130" y="198" font-family="Inter, Arial" font-size="13" fill="#0F172A">+ id</text><text x="130" y="220" font-family="Inter, Arial" font-size="13" fill="#0F172A">+ firstName</text><text x="130" y="242" font-family="Inter, Arial" font-size="13" fill="#0F172A">+ lastName</text><text x="130" y="264" font-family="Inter, Arial" font-size="13" fill="#0F172A">+ email</text><text x="130" y="272" font-family="Inter, Arial" font-size="13" fill="#0F172A">+ bookAppointment()</text><text x="130" y="294" font-family="Inter, Arial" font-size="13" fill="#0F172A">+ cancelAppointment()</text><rect x="520" y="130" width="300" height="230" rx="10" fill="white" stroke="#64748B" stroke-width="2"/>
<rect x="520" y="130" width="300" height="44" rx="10" fill="#F1F5F9" stroke="#64748B" stroke-width="2"/>
<text x="670.0" y="152.0" font-family="Inter, Arial, sans-serif" font-size="16" font-weight="700" fill="#0F172A" text-anchor="middle" dominant-baseline="middle"><tspan x="670.0" dy="0">Appointment</tspan></text><line x1="520" y1="245" x2="820" y2="245" stroke="#CBD5E1"/>
<text x="540" y="198" font-family="Inter, Arial" font-size="13" fill="#0F172A">+ id</text><text x="540" y="220" font-family="Inter, Arial" font-size="13" fill="#0F172A">+ status</text><text x="540" y="242" font-family="Inter, Arial" font-size="13" fill="#0F172A">+ dateTime</text><text x="540" y="264" font-family="Inter, Arial" font-size="13" fill="#0F172A">+ prepaymentAmount</text><text x="540" y="272" font-family="Inter, Arial" font-size="13" fill="#0F172A">+ confirm()</text><text x="540" y="294" font-family="Inter, Arial" font-size="13" fill="#0F172A">+ cancel()</text><rect x="930" y="130" width="300" height="230" rx="10" fill="white" stroke="#64748B" stroke-width="2"/>
<rect x="930" y="130" width="300" height="44" rx="10" fill="#F1F5F9" stroke="#64748B" stroke-width="2"/>
<text x="1080.0" y="152.0" font-family="Inter, Arial, sans-serif" font-size="16" font-weight="700" fill="#0F172A" text-anchor="middle" dominant-baseline="middle"><tspan x="1080.0" dy="0">Specialist</tspan></text><line x1="930" y1="245" x2="1230" y2="245" stroke="#CBD5E1"/>
<text x="950" y="198" font-family="Inter, Arial" font-size="13" fill="#0F172A">+ id</text><text x="950" y="220" font-family="Inter, Arial" font-size="13" fill="#0F172A">+ name</text><text x="950" y="242" font-family="Inter, Arial" font-size="13" fill="#0F172A">+ specialization</text><text x="950" y="272" font-family="Inter, Arial" font-size="13" fill="#0F172A">+ publishSlots()</text><rect x="110" y="500" width="300" height="230" rx="10" fill="white" stroke="#64748B" stroke-width="2"/>
<rect x="110" y="500" width="300" height="44" rx="10" fill="#F1F5F9" stroke="#64748B" stroke-width="2"/>
<text x="260.0" y="522.0" font-family="Inter, Arial, sans-serif" font-size="16" font-weight="700" fill="#0F172A" text-anchor="middle" dominant-baseline="middle"><tspan x="260.0" dy="0">Service</tspan></text><line x1="110" y1="615" x2="410" y2="615" stroke="#CBD5E1"/>
<text x="130" y="568" font-family="Inter, Arial" font-size="13" fill="#0F172A">+ id</text><text x="130" y="590" font-family="Inter, Arial" font-size="13" fill="#0F172A">+ name</text><text x="130" y="612" font-family="Inter, Arial" font-size="13" fill="#0F172A">+ price</text><text x="130" y="634" font-family="Inter, Arial" font-size="13" fill="#0F172A">+ requiresPrepayment</text><text x="130" y="642" font-family="Inter, Arial" font-size="13" fill="#0F172A">+ checkPrepayment()</text><rect x="520" y="500" width="300" height="230" rx="10" fill="white" stroke="#64748B" stroke-width="2"/>
<rect x="520" y="500" width="300" height="44" rx="10" fill="#F1F5F9" stroke="#64748B" stroke-width="2"/>
<text x="670.0" y="522.0" font-family="Inter, Arial, sans-serif" font-size="16" font-weight="700" fill="#0F172A" text-anchor="middle" dominant-baseline="middle"><tspan x="670.0" dy="0">Payment</tspan></text><line x1="520" y1="615" x2="820" y2="615" stroke="#CBD5E1"/>
<text x="540" y="568" font-family="Inter, Arial" font-size="13" fill="#0F172A">+ id</text><text x="540" y="590" font-family="Inter, Arial" font-size="13" fill="#0F172A">+ status</text><text x="540" y="612" font-family="Inter, Arial" font-size="13" fill="#0F172A">+ amount</text><text x="540" y="642" font-family="Inter, Arial" font-size="13" fill="#0F172A">+ authorize()</text><rect x="930" y="500" width="300" height="230" rx="10" fill="white" stroke="#64748B" stroke-width="2"/>
<rect x="930" y="500" width="300" height="44" rx="10" fill="#F1F5F9" stroke="#64748B" stroke-width="2"/>
<text x="1080.0" y="522.0" font-family="Inter, Arial, sans-serif" font-size="16" font-weight="700" fill="#0F172A" text-anchor="middle" dominant-baseline="middle"><tspan x="1080.0" dy="0">Notification</tspan></text><line x1="930" y1="615" x2="1230" y2="615" stroke="#CBD5E1"/>
<text x="950" y="568" font-family="Inter, Arial" font-size="13" fill="#0F172A">+ id</text><text x="950" y="590" font-family="Inter, Arial" font-size="13" fill="#0F172A">+ channel</text><text x="950" y="612" font-family="Inter, Arial" font-size="13" fill="#0F172A">+ status</text><text x="950" y="642" font-family="Inter, Arial" font-size="13" fill="#0F172A">+ send()</text><line x1="260.0" y1="245.0" x2="670.0" y2="245.0" stroke="#334155" stroke-width="1.8"/>
<text x="321.5" y="237.0" font-family="Inter, Arial, sans-serif" font-size="12" font-weight="500" fill="#0F172A" text-anchor="middle" dominant-baseline="middle"><tspan x="321.5" dy="0">1</tspan></text><text x="608.5" y="237.0" font-family="Inter, Arial, sans-serif" font-size="12" font-weight="500" fill="#0F172A" text-anchor="middle" dominant-baseline="middle"><tspan x="608.5" dy="0">0..*</tspan></text><line x1="670.0" y1="245.0" x2="1080.0" y2="245.0" stroke="#334155" stroke-width="1.8"/>
<text x="731.5" y="237.0" font-family="Inter, Arial, sans-serif" font-size="12" font-weight="500" fill="#0F172A" text-anchor="middle" dominant-baseline="middle"><tspan x="731.5" dy="0">0..*</tspan></text><text x="1018.5" y="237.0" font-family="Inter, Arial, sans-serif" font-size="12" font-weight="500" fill="#0F172A" text-anchor="middle" dominant-baseline="middle"><tspan x="1018.5" dy="0">1</tspan></text><line x1="670.0" y1="245.0" x2="260.0" y2="615.0" stroke="#334155" stroke-width="1.8"/>
<text x="608.5" y="292.5" font-family="Inter, Arial, sans-serif" font-size="12" font-weight="500" fill="#0F172A" text-anchor="middle" dominant-baseline="middle"><tspan x="608.5" dy="0">0..*</tspan></text><text x="321.5" y="551.5" font-family="Inter, Arial, sans-serif" font-size="12" font-weight="500" fill="#0F172A" text-anchor="middle" dominant-baseline="middle"><tspan x="321.5" dy="0">1</tspan></text><line x1="670.0" y1="245.0" x2="670.0" y2="615.0" stroke="#334155" stroke-width="1.8"/>
<text x="670.0" y="292.5" font-family="Inter, Arial, sans-serif" font-size="12" font-weight="500" fill="#0F172A" text-anchor="middle" dominant-baseline="middle"><tspan x="670.0" dy="0">1</tspan></text><text x="670.0" y="551.5" font-family="Inter, Arial, sans-serif" font-size="12" font-weight="500" fill="#0F172A" text-anchor="middle" dominant-baseline="middle"><tspan x="670.0" dy="0">0..1</tspan></text><line x1="670.0" y1="245.0" x2="1080.0" y2="615.0" stroke="#334155" stroke-width="1.8"/>
<text x="731.5" y="292.5" font-family="Inter, Arial, sans-serif" font-size="12" font-weight="500" fill="#0F172A" text-anchor="middle" dominant-baseline="middle"><tspan x="731.5" dy="0">1</tspan></text><text x="1018.5" y="551.5" font-family="Inter, Arial, sans-serif" font-size="12" font-weight="500" fill="#0F172A" text-anchor="middle" dominant-baseline="middle"><tspan x="1018.5" dy="0">0..*</tspan></text></svg>
