<svg xmlns="http://www.w3.org/2000/svg" width="1400" height="820" viewBox="0 0 1400 820">
<defs>
<marker id="arrow" viewBox="0 0 10 10" refX="9" refY="5" markerWidth="8" markerHeight="8" orient="auto-start-reverse"><path d="M 0 0 L 10 5 L 0 10 z" fill="#111827"/></marker>
<filter id="shadow" x="-20%" y="-20%" width="140%" height="140%"><feDropShadow dx="0" dy="2" stdDeviation="3" flood-color="#94A3B8" flood-opacity="0.25"/></filter>
</defs>
<rect width="100%" height="100%" fill="#F8FAFC"/>
<text x="700.0" y="32.0" font-family="Inter, Arial, sans-serif" font-size="20" font-weight="700" fill="#0F172A" text-anchor="middle" dominant-baseline="middle"><tspan x="700.0" dy="0">Component diagram — logical architecture</tspan></text>
<rect x="100" y="160" width="240" height="90" rx="12" fill="#EFF6FF" stroke="#2563EB" stroke-width="2"/>
<rect x="118" y="176" width="28" height="18" fill="white" stroke="#2563EB"/><rect x="118" y="200" width="28" height="18" fill="white" stroke="#2563EB"/>
<text x="240" y="205.0" font-family="Inter, Arial, sans-serif" font-size="15" font-weight="600" fill="#0F172A" text-anchor="middle" dominant-baseline="middle"><tspan x="240" dy="0">Patient application</tspan></text><rect x="430" y="160" width="240" height="90" rx="12" fill="#EFF6FF" stroke="#2563EB" stroke-width="2"/>
<rect x="448" y="176" width="28" height="18" fill="white" stroke="#2563EB"/><rect x="448" y="200" width="28" height="18" fill="white" stroke="#2563EB"/>
<text x="570" y="205.0" font-family="Inter, Arial, sans-serif" font-size="15" font-weight="600" fill="#0F172A" text-anchor="middle" dominant-baseline="middle"><tspan x="570" dy="0">Booking API</tspan></text><rect x="750" y="160" width="240" height="90" rx="12" fill="#EFF6FF" stroke="#2563EB" stroke-width="2"/>
<rect x="768" y="176" width="28" height="18" fill="white" stroke="#2563EB"/><rect x="768" y="200" width="28" height="18" fill="white" stroke="#2563EB"/>
<text x="890" y="205.0" font-family="Inter, Arial, sans-serif" font-size="15" font-weight="600" fill="#0F172A" text-anchor="middle" dominant-baseline="middle"><tspan x="890" dy="0">Schedule module</tspan></text><rect x="430" y="420" width="240" height="90" rx="12" fill="#EFF6FF" stroke="#2563EB" stroke-width="2"/>
<rect x="448" y="436" width="28" height="18" fill="white" stroke="#2563EB"/><rect x="448" y="460" width="28" height="18" fill="white" stroke="#2563EB"/>
<text x="570" y="465.0" font-family="Inter, Arial, sans-serif" font-size="15" font-weight="600" fill="#0F172A" text-anchor="middle" dominant-baseline="middle"><tspan x="570" dy="0">Payment module</tspan></text><rect x="750" y="420" width="240" height="90" rx="12" fill="#EFF6FF" stroke="#2563EB" stroke-width="2"/>
<rect x="768" y="436" width="28" height="18" fill="white" stroke="#2563EB"/><rect x="768" y="460" width="28" height="18" fill="white" stroke="#2563EB"/>
<text x="890" y="465.0" font-family="Inter, Arial, sans-serif" font-size="15" font-weight="600" fill="#0F172A" text-anchor="middle" dominant-baseline="middle"><tspan x="890" dy="0">Notification module</tspan></text><rect x="1050" y="160" width="240" height="90" rx="12" fill="#EFF6FF" stroke="#2563EB" stroke-width="2"/>
<rect x="1068" y="176" width="28" height="18" fill="white" stroke="#2563EB"/><rect x="1068" y="200" width="28" height="18" fill="white" stroke="#2563EB"/>
<text x="1190" y="205.0" font-family="Inter, Arial, sans-serif" font-size="15" font-weight="600" fill="#0F172A" text-anchor="middle" dominant-baseline="middle"><tspan x="1190" dy="0">Database</tspan></text><rect x="1050" y="420" width="240" height="90" rx="12" fill="#EFF6FF" stroke="#2563EB" stroke-width="2"/>
<rect x="1068" y="436" width="28" height="18" fill="white" stroke="#2563EB"/><rect x="1068" y="460" width="28" height="18" fill="white" stroke="#2563EB"/>
<text x="1190" y="465.0" font-family="Inter, Arial, sans-serif" font-size="15" font-weight="600" fill="#0F172A" text-anchor="middle" dominant-baseline="middle"><tspan x="1190" dy="0">Payment gateway</tspan></text><rect x="1050" y="600" width="240" height="90" rx="12" fill="#EFF6FF" stroke="#2563EB" stroke-width="2"/>
<rect x="1068" y="616" width="28" height="18" fill="white" stroke="#2563EB"/><rect x="1068" y="640" width="28" height="18" fill="white" stroke="#2563EB"/>
<text x="1190" y="645.0" font-family="Inter, Arial, sans-serif" font-size="15" font-weight="600" fill="#0F172A" text-anchor="middle" dominant-baseline="middle"><tspan x="1190" dy="0">E-mail/SMS</tspan></text><polyline points="220,205 550,205" fill="none" stroke="#111827" stroke-width="2.2" stroke-linejoin="round" stroke-linecap="round" marker-end="url(#arrow)"/><polyline points="550,205 870,205" fill="none" stroke="#111827" stroke-width="2.2" stroke-linejoin="round" stroke-linecap="round" marker-end="url(#arrow)"/><polyline points="550,205 550,465" fill="none" stroke="#111827" stroke-width="2.2" stroke-linejoin="round" stroke-linecap="round" marker-end="url(#arrow)"/><polyline points="550,205 870,465" fill="none" stroke="#111827" stroke-width="2.2" stroke-linejoin="round" stroke-linecap="round" marker-end="url(#arrow)"/><polyline points="550,205 1170,205" fill="none" stroke="#111827" stroke-width="2.2" stroke-linejoin="round" stroke-linecap="round" marker-end="url(#arrow)"/><polyline points="550,465 1170,465" fill="none" stroke="#111827" stroke-width="2.2" stroke-linejoin="round" stroke-linecap="round" marker-end="url(#arrow)"/><polyline points="870,465 1170,645" fill="none" stroke="#111827" stroke-width="2.2" stroke-linejoin="round" stroke-linecap="round" marker-end="url(#arrow)"/><polyline points="870,205 1170,205" fill="none" stroke="#111827" stroke-width="2.2" stroke-linejoin="round" stroke-linecap="round" marker-end="url(#arrow)"/><polyline points="550,465 1170,205" fill="none" stroke="#111827" stroke-width="2.2" stroke-linejoin="round" stroke-linecap="round" marker-end="url(#arrow)"/><polyline points="870,465 1170,205" fill="none" stroke="#111827" stroke-width="2.2" stroke-linejoin="round" stroke-linecap="round" marker-end="url(#arrow)"/></svg>
