<svg xmlns="http://www.w3.org/2000/svg" width="1450" height="900" viewBox="0 0 1450 900">
<defs>
<marker id="arrow" viewBox="0 0 10 10" refX="9" refY="5" markerWidth="8" markerHeight="8" orient="auto-start-reverse"><path d="M 0 0 L 10 5 L 0 10 z" fill="#111827"/></marker>
<filter id="shadow" x="-20%" y="-20%" width="140%" height="140%"><feDropShadow dx="0" dy="2" stdDeviation="3" flood-color="#94A3B8" flood-opacity="0.25"/></filter>
</defs>
<rect width="100%" height="100%" fill="#F8FAFC"/>
<text x="725.0" y="32.0" font-family="Inter, Arial, sans-serif" font-size="20" font-weight="700" fill="#0F172A" text-anchor="middle" dominant-baseline="middle"><tspan x="725.0" dy="0">Diagram przypadków użycia — MediVisit</tspan></text>
<rect x="330" y="100" width="760" height="690" rx="16" fill="white" stroke="#94A3B8" stroke-width="2"/>
<text x="710" y="128.0" font-family="Inter, Arial, sans-serif" font-size="18" font-weight="700" fill="#0F172A" text-anchor="middle" dominant-baseline="middle"><tspan x="710" dy="0">System MediVisit</tspan></text><circle cx="150" cy="180" r="16" fill="none" stroke="#0F172A" stroke-width="2"/><line x1="150" y1="196" x2="150" y2="245" stroke="#0F172A" stroke-width="2"/><line x1="118" y1="214" x2="182" y2="214" stroke="#0F172A" stroke-width="2"/><line x1="150" y1="245" x2="122" y2="288" stroke="#0F172A" stroke-width="2"/><line x1="150" y1="245" x2="178" y2="288" stroke="#0F172A" stroke-width="2"/>
<text x="150" y="315.0" font-family="Inter, Arial, sans-serif" font-size="15" font-weight="600" fill="#0F172A" text-anchor="middle" dominant-baseline="middle"><tspan x="150" dy="0">Pacjent</tspan></text><circle cx="150" cy="530" r="16" fill="none" stroke="#0F172A" stroke-width="2"/><line x1="150" y1="546" x2="150" y2="595" stroke="#0F172A" stroke-width="2"/><line x1="118" y1="564" x2="182" y2="564" stroke="#0F172A" stroke-width="2"/><line x1="150" y1="595" x2="122" y2="638" stroke="#0F172A" stroke-width="2"/><line x1="150" y1="595" x2="178" y2="638" stroke="#0F172A" stroke-width="2"/>
<text x="150" y="665.0" font-family="Inter, Arial, sans-serif" font-size="15" font-weight="600" fill="#0F172A" text-anchor="middle" dominant-baseline="middle"><tspan x="150" dy="0">Recepcja</tspan></text><circle cx="1220" cy="520" r="16" fill="none" stroke="#0F172A" stroke-width="2"/><line x1="1220" y1="536" x2="1220" y2="585" stroke="#0F172A" stroke-width="2"/><line x1="1188" y1="554" x2="1252" y2="554" stroke="#0F172A" stroke-width="2"/><line x1="1220" y1="585" x2="1192" y2="628" stroke="#0F172A" stroke-width="2"/><line x1="1220" y1="585" x2="1248" y2="628" stroke="#0F172A" stroke-width="2"/>
<text x="1220" y="655.0" font-family="Inter, Arial, sans-serif" font-size="15" font-weight="600" fill="#0F172A" text-anchor="middle" dominant-baseline="middle"><tspan x="1220" dy="0">Administrator</tspan></text><circle cx="1220" cy="220" r="16" fill="none" stroke="#0F172A" stroke-width="2"/><line x1="1220" y1="236" x2="1220" y2="285" stroke="#0F172A" stroke-width="2"/><line x1="1188" y1="254" x2="1252" y2="254" stroke="#0F172A" stroke-width="2"/><line x1="1220" y1="285" x2="1192" y2="328" stroke="#0F172A" stroke-width="2"/><line x1="1220" y1="285" x2="1248" y2="328" stroke="#0F172A" stroke-width="2"/>
<text x="1220" y="355.0" font-family="Inter, Arial, sans-serif" font-size="15" font-weight="600" fill="#0F172A" text-anchor="middle" dominant-baseline="middle"><tspan x="1220" dy="0">Bramka płatności</tspan></text><circle cx="1220" cy="680" r="16" fill="none" stroke="#0F172A" stroke-width="2"/><line x1="1220" y1="696" x2="1220" y2="745" stroke="#0F172A" stroke-width="2"/><line x1="1188" y1="714" x2="1252" y2="714" stroke="#0F172A" stroke-width="2"/><line x1="1220" y1="745" x2="1192" y2="788" stroke="#0F172A" stroke-width="2"/><line x1="1220" y1="745" x2="1248" y2="788" stroke="#0F172A" stroke-width="2"/>
<text x="1220" y="815.0" font-family="Inter, Arial, sans-serif" font-size="15" font-weight="600" fill="#0F172A" text-anchor="middle" dominant-baseline="middle"><tspan x="1220" dy="0">Usługa powiadomień</tspan></text><ellipse cx="510" cy="210" rx="125" ry="44" fill="#EFF6FF" stroke="#2563EB" stroke-width="2"/>
<text x="510" y="201.6" font-family="Inter, Arial, sans-serif" font-size="14" font-weight="500" fill="#0F172A" text-anchor="middle" dominant-baseline="middle"><tspan x="510" dy="0">Wyszukaj</tspan><tspan x="510" dy="16.8">specjalistę</tspan></text><ellipse cx="710" cy="210" rx="125" ry="44" fill="#EFF6FF" stroke="#2563EB" stroke-width="2"/>
<text x="710" y="210.0" font-family="Inter, Arial, sans-serif" font-size="14" font-weight="500" fill="#0F172A" text-anchor="middle" dominant-baseline="middle"><tspan x="710" dy="0">Wybierz termin</tspan></text><ellipse cx="900" cy="210" rx="125" ry="44" fill="#EFF6FF" stroke="#2563EB" stroke-width="2"/>
<text x="900" y="210.0" font-family="Inter, Arial, sans-serif" font-size="14" font-weight="500" fill="#0F172A" text-anchor="middle" dominant-baseline="middle"><tspan x="900" dy="0">Zarezerwuj wizytę</tspan></text><ellipse cx="710" cy="360" rx="125" ry="44" fill="#EFF6FF" stroke="#2563EB" stroke-width="2"/>
<text x="710" y="360.0" font-family="Inter, Arial, sans-serif" font-size="14" font-weight="500" fill="#0F172A" text-anchor="middle" dominant-baseline="middle"><tspan x="710" dy="0">Opłać przedpłatę</tspan></text><ellipse cx="520" cy="520" rx="125" ry="44" fill="#EFF6FF" stroke="#2563EB" stroke-width="2"/>
<text x="520" y="520.0" font-family="Inter, Arial, sans-serif" font-size="14" font-weight="500" fill="#0F172A" text-anchor="middle" dominant-baseline="middle"><tspan x="520" dy="0">Anuluj wizytę</tspan></text><ellipse cx="880" cy="520" rx="125" ry="44" fill="#EFF6FF" stroke="#2563EB" stroke-width="2"/>
<text x="880" y="511.6" font-family="Inter, Arial, sans-serif" font-size="14" font-weight="500" fill="#0F172A" text-anchor="middle" dominant-baseline="middle"><tspan x="880" dy="0">Zarządzaj</tspan><tspan x="880" dy="16.8">harmonogramem</tspan></text><ellipse cx="710" cy="670" rx="125" ry="44" fill="#EFF6FF" stroke="#2563EB" stroke-width="2"/>
<text x="710" y="661.6" font-family="Inter, Arial, sans-serif" font-size="14" font-weight="500" fill="#0F172A" text-anchor="middle" dominant-baseline="middle"><tspan x="710" dy="0">Wyślij</tspan><tspan x="710" dy="16.8">potwierdzenie</tspan></text><line x1="190" y1="265" x2="390" y2="210" stroke="#475569" stroke-width="1.8"/>
<line x1="190" y1="265" x2="585" y2="210" stroke="#475569" stroke-width="1.8"/>
<line x1="190" y1="265" x2="585" y2="360" stroke="#475569" stroke-width="1.8"/>
<line x1="190" y1="615" x2="395" y2="520" stroke="#475569" stroke-width="1.8"/>
<line x1="190" y1="615" x2="755" y2="520" stroke="#475569" stroke-width="1.8"/>
<line x1="1180" y1="305" x2="835" y2="360" stroke="#475569" stroke-width="1.8"/>
<line x1="1180" y1="605" x2="1000" y2="520" stroke="#475569" stroke-width="1.8"/>
<line x1="1180" y1="765" x2="835" y2="670" stroke="#475569" stroke-width="1.8"/>
</svg>
