<svg xmlns="http://www.w3.org/2000/svg" width="1500" height="1000" viewBox="0 0 1500 1000" role="img" aria-label="Diagram klas — model domenowy">
  <defs>
    <marker id="arrow" markerWidth="10" markerHeight="10" refX="8" refY="3" orient="auto" markerUnits="strokeWidth">
      <path d="M0,0 L0,6 L9,3 z" fill="#172033" />
    </marker>
    <filter id="softShadow" x="-10%" y="-10%" width="120%" height="120%">
      <feDropShadow dx="0" dy="2" stdDeviation="2" flood-color="#0F172A" flood-opacity="0.08"/>
    </filter>
    <style>
      .title { font: 700 24px Arial, Helvetica, sans-serif; fill: #182233; }
      .subtitle { font: 500 14px Arial, Helvetica, sans-serif; fill: #5F6B7A; }
      .laneTitle { font: 700 18px Arial, Helvetica, sans-serif; fill: #182233; }
      .label { font: 600 16px Arial, Helvetica, sans-serif; fill: #182233; }
      .small { font: 500 13px Arial, Helvetica, sans-serif; fill: #5F6B7A; }
      .mono { font: 500 14px Arial, Helvetica, sans-serif; fill: #182233; }
      .shapeText { font: 600 15px Arial, Helvetica, sans-serif; fill: #182233; }
      .classTitle { font: 700 16px Arial, Helvetica, sans-serif; fill: #182233; }
      .classBody { font: 500 13px Arial, Helvetica, sans-serif; fill: #182233; }
    </style>
  </defs>
  <rect x="0" y="0" width="1500" height="1000" rx="18" fill="#FFFFFF"/>

<text x="750.0" y="42.0" class="title" text-anchor="middle" dominant-baseline="middle">
<tspan x="750.0" dy="0">Diagram klas — model domenowy</tspan>
</text>
<rect x="550" y="105" width="330" height="185" rx="8" fill="#FFFFFF" stroke="#64748B" stroke-width="2" filter="url(#softShadow)"/>
<rect x="550" y="105" width="330" height="38" rx="8" fill="#EEF4FB" stroke="#64748B" stroke-width="2"/>
<rect x="550" y="130" width="330" height="13" fill="#EEF4FB"/>
<text x="715.0" y="124.0" class="classTitle" text-anchor="middle" dominant-baseline="middle">
<tspan x="715.0" dy="0">Lekarz</tspan>
</text>
<polyline points="550,143 880,143" fill="none" stroke="#64748B" stroke-width="1.5" stroke-linecap="round" stroke-linejoin="round"/>
<text x="566" y="171" class="classBody" text-anchor="start">
<tspan x="566" dy="0">+ idLekarza: UUID</tspan>
<tspan x="566" dy="21">+ specjalizacja: String</tspan>
<tspan x="566" dy="21">+ numerPWZ: String</tspan>
</text>
<rect x="975" y="105" width="330" height="185" rx="8" fill="#FFFFFF" stroke="#64748B" stroke-width="2" filter="url(#softShadow)"/>
<rect x="975" y="105" width="330" height="38" rx="8" fill="#EEF4FB" stroke="#64748B" stroke-width="2"/>
<rect x="975" y="130" width="330" height="13" fill="#EEF4FB"/>
<text x="1140.0" y="124.0" class="classTitle" text-anchor="middle" dominant-baseline="middle">
<tspan x="1140.0" dy="0">Usługa medyczna</tspan>
</text>
<polyline points="975,143 1305,143" fill="none" stroke="#64748B" stroke-width="1.5" stroke-linecap="round" stroke-linejoin="round"/>
<text x="991" y="171" class="classBody" text-anchor="start">
<tspan x="991" dy="0">+ idUsługi: UUID</tspan>
<tspan x="991" dy="21">+ nazwa: String</tspan>
<tspan x="991" dy="21">+ czasTrwania: Integer</tspan>
<tspan x="991" dy="21">+ wymagaPrzedpłaty: Boolean</tspan>
</text>
<rect x="120" y="355" width="330" height="185" rx="8" fill="#FFFFFF" stroke="#64748B" stroke-width="2" filter="url(#softShadow)"/>
<rect x="120" y="355" width="330" height="38" rx="8" fill="#EEF4FB" stroke="#64748B" stroke-width="2"/>
<rect x="120" y="380" width="330" height="13" fill="#EEF4FB"/>
<text x="285.0" y="374.0" class="classTitle" text-anchor="middle" dominant-baseline="middle">
<tspan x="285.0" dy="0">Pacjent</tspan>
</text>
<polyline points="120,393 450,393" fill="none" stroke="#64748B" stroke-width="1.5" stroke-linecap="round" stroke-linejoin="round"/>
<text x="136" y="421" class="classBody" text-anchor="start">
<tspan x="136" dy="0">+ idPacjenta: UUID</tspan>
<tspan x="136" dy="21">+ imięNazwisko: String</tspan>
<tspan x="136" dy="21">+ email: String</tspan>
<tspan x="136" dy="21">+ telefon: String</tspan>
</text>
<rect x="550" y="355" width="330" height="185" rx="8" fill="#FFFFFF" stroke="#64748B" stroke-width="2" filter="url(#softShadow)"/>
<rect x="550" y="355" width="330" height="38" rx="8" fill="#EEF4FB" stroke="#64748B" stroke-width="2"/>
<rect x="550" y="380" width="330" height="13" fill="#EEF4FB"/>
<text x="715.0" y="374.0" class="classTitle" text-anchor="middle" dominant-baseline="middle">
<tspan x="715.0" dy="0">Wizyta</tspan>
</text>
<polyline points="550,393 880,393" fill="none" stroke="#64748B" stroke-width="1.5" stroke-linecap="round" stroke-linejoin="round"/>
<text x="566" y="421" class="classBody" text-anchor="start">
<tspan x="566" dy="0">+ idWizyty: UUID</tspan>
<tspan x="566" dy="21">+ status: StatusWizyty</tspan>
<tspan x="566" dy="21">+ dataUtworzenia: DateTime</tspan>
<tspan x="566" dy="21">+ potwierdź()</tspan>
<tspan x="566" dy="21">+ anuluj()</tspan>
</text>
<rect x="975" y="355" width="330" height="185" rx="8" fill="#FFFFFF" stroke="#64748B" stroke-width="2" filter="url(#softShadow)"/>
<rect x="975" y="355" width="330" height="38" rx="8" fill="#EEF4FB" stroke="#64748B" stroke-width="2"/>
<rect x="975" y="380" width="330" height="13" fill="#EEF4FB"/>
<text x="1140.0" y="374.0" class="classTitle" text-anchor="middle" dominant-baseline="middle">
<tspan x="1140.0" dy="0">Termin</tspan>
</text>
<polyline points="975,393 1305,393" fill="none" stroke="#64748B" stroke-width="1.5" stroke-linecap="round" stroke-linejoin="round"/>
<text x="991" y="421" class="classBody" text-anchor="start">
<tspan x="991" dy="0">+ idTerminu: UUID</tspan>
<tspan x="991" dy="21">+ start: DateTime</tspan>
<tspan x="991" dy="21">+ koniec: DateTime</tspan>
<tspan x="991" dy="21">+ status: StatusTerminu</tspan>
</text>
<rect x="335" y="680" width="330" height="185" rx="8" fill="#FFFFFF" stroke="#64748B" stroke-width="2" filter="url(#softShadow)"/>
<rect x="335" y="680" width="330" height="38" rx="8" fill="#EEF4FB" stroke="#64748B" stroke-width="2"/>
<rect x="335" y="705" width="330" height="13" fill="#EEF4FB"/>
<text x="500.0" y="699.0" class="classTitle" text-anchor="middle" dominant-baseline="middle">
<tspan x="500.0" dy="0">Płatność</tspan>
</text>
<polyline points="335,718 665,718" fill="none" stroke="#64748B" stroke-width="1.5" stroke-linecap="round" stroke-linejoin="round"/>
<text x="351" y="746" class="classBody" text-anchor="start">
<tspan x="351" dy="0">+ idPłatności: UUID</tspan>
<tspan x="351" dy="21">+ kwota: Decimal</tspan>
<tspan x="351" dy="21">+ status: StatusPłatności</tspan>
<tspan x="351" dy="21">+ autoryzuj()</tspan>
</text>
<rect x="765" y="680" width="330" height="185" rx="8" fill="#FFFFFF" stroke="#64748B" stroke-width="2" filter="url(#softShadow)"/>
<rect x="765" y="680" width="330" height="38" rx="8" fill="#EEF4FB" stroke="#64748B" stroke-width="2"/>
<rect x="765" y="705" width="330" height="13" fill="#EEF4FB"/>
<text x="930.0" y="699.0" class="classTitle" text-anchor="middle" dominant-baseline="middle">
<tspan x="930.0" dy="0">Powiadomienie</tspan>
</text>
<polyline points="765,718 1095,718" fill="none" stroke="#64748B" stroke-width="1.5" stroke-linecap="round" stroke-linejoin="round"/>
<text x="781" y="746" class="classBody" text-anchor="start">
<tspan x="781" dy="0">+ idPowiadomienia: UUID</tspan>
<tspan x="781" dy="21">+ kanał: Kanał</tspan>
<tspan x="781" dy="21">+ status: StatusWysyłki</tspan>
<tspan x="781" dy="21">+ wyślij()</tspan>
</text>
<polyline points="450,448 550,448" fill="none" stroke="#334155" stroke-width="1.8" stroke-linecap="round" stroke-linejoin="round"/>
<rect x="425.0" y="432.0" width="150" height="30" rx="4" fill="#FFFFFF" stroke="#FFFFFF" stroke-width="0"/>
<text x="500.0" y="448.0" class="small" text-anchor="middle" dominant-baseline="middle">
<tspan x="500.0" dy="0">1 pacjent</tspan>
</text>
<polyline points="715,355 715,290" fill="none" stroke="#334155" stroke-width="1.8" stroke-linecap="round" stroke-linejoin="round"/>
<rect x="640.0" y="306.5" width="150" height="30" rx="4" fill="#FFFFFF" stroke="#FFFFFF" stroke-width="0"/>
<text x="715.0" y="322.5" class="small" text-anchor="middle" dominant-baseline="middle">
<tspan x="715.0" dy="0">1 lekarz</tspan>
</text>
<polyline points="880,448 975,448" fill="none" stroke="#334155" stroke-width="1.8" stroke-linecap="round" stroke-linejoin="round"/>
<rect x="852.5" y="432.0" width="150" height="30" rx="4" fill="#FFFFFF" stroke="#FFFFFF" stroke-width="0"/>
<text x="927.5" y="448.0" class="small" text-anchor="middle" dominant-baseline="middle">
<tspan x="927.5" dy="0">1 termin</tspan>
</text>
<polyline points="800,355 975,290" fill="none" stroke="#334155" stroke-width="1.8" stroke-linecap="round" stroke-linejoin="round"/>
<rect x="812.5" y="306.5" width="150" height="30" rx="4" fill="#FFFFFF" stroke="#FFFFFF" stroke-width="0"/>
<text x="887.5" y="322.5" class="small" text-anchor="middle" dominant-baseline="middle">
<tspan x="887.5" dy="0">1 usługa</tspan>
</text>
<polyline points="620,540 500,680" fill="none" stroke="#334155" stroke-width="1.8" stroke-linecap="round" stroke-linejoin="round"/>
<rect x="485.0" y="594.0" width="150" height="30" rx="4" fill="#FFFFFF" stroke="#FFFFFF" stroke-width="0"/>
<text x="560.0" y="610.0" class="small" text-anchor="middle" dominant-baseline="middle">
<tspan x="560.0" dy="0">0..1 płatność</tspan>
</text>
<polyline points="760,540 875,680" fill="none" stroke="#334155" stroke-width="1.8" stroke-linecap="round" stroke-linejoin="round"/>
<rect x="742.5" y="594.0" width="150" height="30" rx="4" fill="#FFFFFF" stroke="#FFFFFF" stroke-width="0"/>
<text x="817.5" y="610.0" class="small" text-anchor="middle" dominant-baseline="middle">
<tspan x="817.5" dy="0">0..* powiadomienia</tspan>
</text>
</svg>
