<svg xmlns="http://www.w3.org/2000/svg" width="1300" height="760" viewBox="0 0 1300 760">
<defs>
<marker id="arrow" viewBox="0 0 10 10" refX="9" refY="5" markerWidth="8" markerHeight="8" orient="auto-start-reverse"><path d="M 0 0 L 10 5 L 0 10 z" fill="#111827"/></marker>
<filter id="shadow" x="-20%" y="-20%" width="140%" height="140%"><feDropShadow dx="0" dy="2" stdDeviation="3" flood-color="#94A3B8" flood-opacity="0.25"/></filter>
</defs>
<rect width="100%" height="100%" fill="#F8FAFC"/>
<text x="650.0" y="32.0" font-family="Inter, Arial, sans-serif" font-size="20" font-weight="700" fill="#0F172A" text-anchor="middle" dominant-baseline="middle"><tspan x="650.0" dy="0">Diagram stanów — cykl życia wizyty</tspan></text>
<circle cx="100" cy="180" r="16" fill="#020617"/><rect x="125" y="115" width="210" height="70" rx="14" fill="#EFF6FF" stroke="#2563EB" stroke-width="2"/>
<text x="230.0" y="150.0" font-family="Inter, Arial, sans-serif" font-size="14" font-weight="500" fill="#0F172A" text-anchor="middle" dominant-baseline="middle"><tspan x="230.0" dy="0">Nowa</tspan></text><rect x="395" y="115" width="210" height="70" rx="14" fill="#EFF6FF" stroke="#2563EB" stroke-width="2"/>
<text x="500.0" y="141.6" font-family="Inter, Arial, sans-serif" font-size="14" font-weight="500" fill="#0F172A" text-anchor="middle" dominant-baseline="middle"><tspan x="500.0" dy="0">Tymczasowo</tspan><tspan x="500.0" dy="16.8">zarezerwowana</tspan></text><rect x="675" y="115" width="210" height="70" rx="14" fill="#EFF6FF" stroke="#2563EB" stroke-width="2"/>
<text x="780.0" y="141.6" font-family="Inter, Arial, sans-serif" font-size="14" font-weight="500" fill="#0F172A" text-anchor="middle" dominant-baseline="middle"><tspan x="780.0" dy="0">Oczekuje na</tspan><tspan x="780.0" dy="16.8">płatność</tspan></text><rect x="675" y="365" width="210" height="70" rx="14" fill="#EFF6FF" stroke="#2563EB" stroke-width="2"/>
<text x="780.0" y="400.0" font-family="Inter, Arial, sans-serif" font-size="14" font-weight="500" fill="#0F172A" text-anchor="middle" dominant-baseline="middle"><tspan x="780.0" dy="0">Potwierdzona</tspan></text><rect x="395" y="365" width="210" height="70" rx="14" fill="#F1F5F9" stroke="#64748B" stroke-width="2"/>
<text x="500.0" y="400.0" font-family="Inter, Arial, sans-serif" font-size="14" font-weight="500" fill="#0F172A" text-anchor="middle" dominant-baseline="middle"><tspan x="500.0" dy="0">Anulowana</tspan></text><rect x="125" y="365" width="210" height="70" rx="14" fill="#F1F5F9" stroke="#64748B" stroke-width="2"/>
<text x="230.0" y="400.0" font-family="Inter, Arial, sans-serif" font-size="14" font-weight="500" fill="#0F172A" text-anchor="middle" dominant-baseline="middle"><tspan x="230.0" dy="0">Wygasła</tspan></text><rect x="945" y="365" width="210" height="70" rx="14" fill="#F1F5F9" stroke="#64748B" stroke-width="2"/>
<text x="1050.0" y="400.0" font-family="Inter, Arial, sans-serif" font-size="14" font-weight="500" fill="#0F172A" text-anchor="middle" dominant-baseline="middle"><tspan x="1050.0" dy="0">Zakończona</tspan></text><circle cx="1180" cy="400" r="22" fill="white" stroke="#020617" stroke-width="4"/><circle cx="1180" cy="400" r="13" fill="#020617"/><polyline points="116,180 125,180" fill="none" stroke="#111827" stroke-width="2.2" stroke-linejoin="round" stroke-linecap="round" marker-end="url(#arrow)"/><polyline points="116,180 125,180 125,150 125,150" fill="none" stroke="#111827" stroke-width="2.2" stroke-linejoin="round" stroke-linecap="round" marker-end="url(#arrow)"/><polyline points="116,180 125,150" fill="none" stroke="#111827" stroke-width="2.2" stroke-linejoin="round" stroke-linecap="round" marker-end="url(#arrow)"/><polyline points="335,150 395,150" fill="none" stroke="#111827" stroke-width="2.2" stroke-linejoin="round" stroke-linecap="round" marker-end="url(#arrow)"/>
<rect x="373" y="137" width="44" height="24" rx="8" fill="#F8FAFC" opacity="0.94"/>
<text x="395" y="142.2" font-family="Inter, Arial, sans-serif" font-size="13" font-weight="500" fill="#0F172A" text-anchor="middle" dominant-baseline="middle"><tspan x="395" dy="0">wybór</tspan><tspan x="395" dy="15.6">terminu</tspan></text><polyline points="605,150 675,150" fill="none" stroke="#111827" stroke-width="2.2" stroke-linejoin="round" stroke-linecap="round" marker-end="url(#arrow)"/>
<rect x="653" y="137" width="44" height="24" rx="8" fill="#F8FAFC" opacity="0.94"/>
<text x="675" y="142.2" font-family="Inter, Arial, sans-serif" font-size="13" font-weight="500" fill="#0F172A" text-anchor="middle" dominant-baseline="middle"><tspan x="675" dy="0">wymagana</tspan><tspan x="675" dy="15.6">przedpłata</tspan></text><polyline points="780,185 780,365" fill="none" stroke="#111827" stroke-width="2.2" stroke-linejoin="round" stroke-linecap="round" marker-end="url(#arrow)"/>
<rect x="758" y="352" width="44" height="24" rx="8" fill="#F8FAFC" opacity="0.94"/>
<text x="780" y="357.2" font-family="Inter, Arial, sans-serif" font-size="13" font-weight="500" fill="#0F172A" text-anchor="middle" dominant-baseline="middle"><tspan x="780" dy="0">płatność</tspan><tspan x="780" dy="15.6">OK</tspan></text><polyline points="885,400 945,400" fill="none" stroke="#111827" stroke-width="2.2" stroke-linejoin="round" stroke-linecap="round" marker-end="url(#arrow)"/>
<rect x="923" y="387" width="44" height="24" rx="8" fill="#F8FAFC" opacity="0.94"/>
<text x="945" y="392.2" font-family="Inter, Arial, sans-serif" font-size="13" font-weight="500" fill="#0F172A" text-anchor="middle" dominant-baseline="middle"><tspan x="945" dy="0">termin</tspan><tspan x="945" dy="15.6">minął</tspan></text><polyline points="1155,400 1158,400" fill="none" stroke="#111827" stroke-width="2.2" stroke-linejoin="round" stroke-linecap="round" marker-end="url(#arrow)"/><polyline points="885,400 395,400" fill="none" stroke="#111827" stroke-width="2.2" stroke-linejoin="round" stroke-linecap="round" marker-end="url(#arrow)"/>
<rect x="373" y="387" width="44" height="24" rx="8" fill="#F8FAFC" opacity="0.94"/>
<text x="395" y="400.0" font-family="Inter, Arial, sans-serif" font-size="13" font-weight="500" fill="#0F172A" text-anchor="middle" dominant-baseline="middle"><tspan x="395" dy="0">anulowanie</tspan></text><polyline points="780,185 230,365" fill="none" stroke="#111827" stroke-width="2.2" stroke-linejoin="round" stroke-linecap="round" marker-end="url(#arrow)"/>
<rect x="208" y="352" width="44" height="24" rx="8" fill="#F8FAFC" opacity="0.94"/>
<text x="230" y="357.2" font-family="Inter, Arial, sans-serif" font-size="13" font-weight="500" fill="#0F172A" text-anchor="middle" dominant-baseline="middle"><tspan x="230" dy="0">brak</tspan><tspan x="230" dy="15.6">płatności</tspan></text><polyline points="500,185 500,365" fill="none" stroke="#111827" stroke-width="2.2" stroke-linejoin="round" stroke-linecap="round" marker-end="url(#arrow)"/>
<rect x="478" y="352" width="44" height="24" rx="8" fill="#F8FAFC" opacity="0.94"/>
<text x="500" y="365.0" font-family="Inter, Arial, sans-serif" font-size="13" font-weight="500" fill="#0F172A" text-anchor="middle" dominant-baseline="middle"><tspan x="500" dy="0">anulowanie</tspan></text></svg>
