<svg xmlns="http://www.w3.org/2000/svg" width="1500" height="900" viewBox="0 0 1500 900" role="img" aria-label="Diagram komponentów — architektura logiczna">
  <defs>
    <marker id="arrow" markerWidth="10" markerHeight="10" refX="8" refY="3" orient="auto" markerUnits="strokeWidth">
      <path d="M0,0 L0,6 L9,3 z" fill="#172033" />
    </marker>
    <filter id="softShadow" x="-10%" y="-10%" width="120%" height="120%">
      <feDropShadow dx="0" dy="2" stdDeviation="2" flood-color="#0F172A" flood-opacity="0.08"/>
    </filter>
    <style>
      .title { font: 700 24px Arial, Helvetica, sans-serif; fill: #182233; }
      .subtitle { font: 500 14px Arial, Helvetica, sans-serif; fill: #5F6B7A; }
      .laneTitle { font: 700 18px Arial, Helvetica, sans-serif; fill: #182233; }
      .label { font: 600 16px Arial, Helvetica, sans-serif; fill: #182233; }
      .small { font: 500 13px Arial, Helvetica, sans-serif; fill: #5F6B7A; }
      .mono { font: 500 14px Arial, Helvetica, sans-serif; fill: #182233; }
      .shapeText { font: 600 15px Arial, Helvetica, sans-serif; fill: #182233; }
      .classTitle { font: 700 16px Arial, Helvetica, sans-serif; fill: #182233; }
      .classBody { font: 500 13px Arial, Helvetica, sans-serif; fill: #182233; }
    </style>
  </defs>
  <rect x="0" y="0" width="1500" height="900" rx="18" fill="#FFFFFF"/>

<text x="750.0" y="42.0" class="title" text-anchor="middle" dominant-baseline="middle">
<tspan x="750.0" dy="0">Diagram komponentów — architektura logiczna</tspan>
</text>
<rect x="60" y="120" width="260" height="600" rx="16" fill="#FFFFFF" stroke="#D8E1EC" stroke-width="1.5" stroke-dasharray="6 6"/>
<text x="190.0" y="148.0" class="laneTitle" text-anchor="middle" dominant-baseline="middle">
<tspan x="190.0" dy="0">Klient</tspan>
</text>
<rect x="390" y="120" width="300" height="600" rx="16" fill="#FFFFFF" stroke="#D8E1EC" stroke-width="1.5" stroke-dasharray="6 6"/>
<text x="540.0" y="148.0" class="laneTitle" text-anchor="middle" dominant-baseline="middle">
<tspan x="540.0" dy="0">Warstwa API</tspan>
</text>
<rect x="760" y="120" width="360" height="600" rx="16" fill="#FFFFFF" stroke="#D8E1EC" stroke-width="1.5" stroke-dasharray="6 6"/>
<text x="940.0" y="148.0" class="laneTitle" text-anchor="middle" dominant-baseline="middle">
<tspan x="940.0" dy="0">Usługi domenowe</tspan>
</text>
<rect x="1190" y="120" width="250" height="600" rx="16" fill="#FFFFFF" stroke="#D8E1EC" stroke-width="1.5" stroke-dasharray="6 6"/>
<text x="1315.0" y="148.0" class="laneTitle" text-anchor="middle" dominant-baseline="middle">
<tspan x="1315.0" dy="0">Systemy zewnętrzne</tspan>
</text>
<rect x="95" y="250" width="190" height="90" rx="12" fill="#EEF6FF" stroke="#2563EB" stroke-width="2" filter="url(#softShadow)"/>
<rect x="243" y="262" width="18" height="12" rx="2" fill="#FFFFFF" stroke="#2563EB" stroke-width="1"/>
<rect x="243" y="280" width="18" height="12" rx="2" fill="#FFFFFF" stroke="#2563EB" stroke-width="1"/>
<text x="190.0" y="295.0" class="shapeText" text-anchor="middle" dominant-baseline="middle">
<tspan x="190.0" dy="0">Aplikacja web / mobile</tspan>
</text>
<rect x="430" y="210" width="220" height="80" rx="12" fill="#EEF6FF" stroke="#2563EB" stroke-width="2" filter="url(#softShadow)"/>
<rect x="608" y="222" width="18" height="12" rx="2" fill="#FFFFFF" stroke="#2563EB" stroke-width="1"/>
<rect x="608" y="240" width="18" height="12" rx="2" fill="#FFFFFF" stroke="#2563EB" stroke-width="1"/>
<text x="540.0" y="250.0" class="shapeText" text-anchor="middle" dominant-baseline="middle">
<tspan x="540.0" dy="0">API rezerwacji</tspan>
</text>
<rect x="430" y="370" width="220" height="80" rx="12" fill="#F8FAFC" stroke="#64748B" stroke-width="2" filter="url(#softShadow)"/>
<rect x="608" y="382" width="18" height="12" rx="2" fill="#FFFFFF" stroke="#64748B" stroke-width="1"/>
<rect x="608" y="400" width="18" height="12" rx="2" fill="#FFFFFF" stroke="#64748B" stroke-width="1"/>
<text x="540.0" y="410.0" class="shapeText" text-anchor="middle" dominant-baseline="middle">
<tspan x="540.0" dy="0">Moduł uwierzytelniania</tspan>
</text>
<rect x="795" y="170" width="260" height="80" rx="12" fill="#EEF6FF" stroke="#2563EB" stroke-width="2" filter="url(#softShadow)"/>
<rect x="1013" y="182" width="18" height="12" rx="2" fill="#FFFFFF" stroke="#2563EB" stroke-width="1"/>
<rect x="1013" y="200" width="18" height="12" rx="2" fill="#FFFFFF" stroke="#2563EB" stroke-width="1"/>
<text x="925.0" y="210.0" class="shapeText" text-anchor="middle" dominant-baseline="middle">
<tspan x="925.0" dy="0">Usługa dostępności</tspan>
</text>
<rect x="795" y="310" width="260" height="80" rx="12" fill="#ECFDF5" stroke="#0F766E" stroke-width="2" filter="url(#softShadow)"/>
<rect x="1013" y="322" width="18" height="12" rx="2" fill="#FFFFFF" stroke="#0F766E" stroke-width="1"/>
<rect x="1013" y="340" width="18" height="12" rx="2" fill="#FFFFFF" stroke="#0F766E" stroke-width="1"/>
<text x="925.0" y="350.0" class="shapeText" text-anchor="middle" dominant-baseline="middle">
<tspan x="925.0" dy="0">Usługa wizyt</tspan>
</text>
<rect x="795" y="450" width="260" height="80" rx="12" fill="#FFF7ED" stroke="#EA8A00" stroke-width="2" filter="url(#softShadow)"/>
<rect x="1013" y="462" width="18" height="12" rx="2" fill="#FFFFFF" stroke="#EA8A00" stroke-width="1"/>
<rect x="1013" y="480" width="18" height="12" rx="2" fill="#FFFFFF" stroke="#EA8A00" stroke-width="1"/>
<text x="925.0" y="490.0" class="shapeText" text-anchor="middle" dominant-baseline="middle">
<tspan x="925.0" dy="0">Adapter płatności</tspan>
</text>
<rect x="795" y="590" width="260" height="80" rx="12" fill="#F5F3FF" stroke="#7C3AED" stroke-width="2" filter="url(#softShadow)"/>
<rect x="1013" y="602" width="18" height="12" rx="2" fill="#FFFFFF" stroke="#7C3AED" stroke-width="1"/>
<rect x="1013" y="620" width="18" height="12" rx="2" fill="#FFFFFF" stroke="#7C3AED" stroke-width="1"/>
<text x="925.0" y="630.0" class="shapeText" text-anchor="middle" dominant-baseline="middle">
<tspan x="925.0" dy="0">Adapter powiadomień</tspan>
</text>
<ellipse cx="575" cy="610" rx="90" ry="22" fill="#EEF4FB" stroke="#64748B" stroke-width="2"/>
<rect x="485" y="610" width="180" height="95" rx="0" fill="#EEF4FB" stroke="#64748B" stroke-width="2"/>
<ellipse cx="575" cy="705" rx="90" ry="22" fill="#EEF4FB" stroke="#64748B" stroke-width="2" filter="url(#softShadow)"/>
<text x="575" y="662.0" class="shapeText" text-anchor="middle" dominant-baseline="middle">
<tspan x="575" dy="0">Baza danych</tspan>
</text>
<rect x="1220" y="450" width="190" height="80" rx="12" fill="#F8FAFC" stroke="#64748B" stroke-width="2" filter="url(#softShadow)"/>
<rect x="1368" y="462" width="18" height="12" rx="2" fill="#FFFFFF" stroke="#64748B" stroke-width="1"/>
<rect x="1368" y="480" width="18" height="12" rx="2" fill="#FFFFFF" stroke="#64748B" stroke-width="1"/>
<text x="1315.0" y="490.0" class="shapeText" text-anchor="middle" dominant-baseline="middle">
<tspan x="1315.0" dy="0">Zewnętrzna bramka płatności</tspan>
</text>
<rect x="1220" y="590" width="190" height="80" rx="12" fill="#F8FAFC" stroke="#64748B" stroke-width="2" filter="url(#softShadow)"/>
<rect x="1368" y="602" width="18" height="12" rx="2" fill="#FFFFFF" stroke="#64748B" stroke-width="1"/>
<rect x="1368" y="620" width="18" height="12" rx="2" fill="#FFFFFF" stroke="#64748B" stroke-width="1"/>
<text x="1315.0" y="630.0" class="shapeText" text-anchor="middle" dominant-baseline="middle">
<tspan x="1315.0" dy="0">Dostawca SMS / e-mail</tspan>
</text>
<polyline points="285,295 430,250" fill="none" stroke="#172033" stroke-width="2.2" stroke-linecap="round" stroke-linejoin="round" marker-end="url(#arrow)"/>
<polyline points="650,250 795,210" fill="none" stroke="#172033" stroke-width="2.2" stroke-linecap="round" stroke-linejoin="round" marker-end="url(#arrow)"/>
<polyline points="650,250 795,350" fill="none" stroke="#172033" stroke-width="2.2" stroke-linecap="round" stroke-linejoin="round" marker-end="url(#arrow)"/>
<polyline points="650,250 795,490" fill="none" stroke="#172033" stroke-width="2.2" stroke-linecap="round" stroke-linejoin="round" marker-end="url(#arrow)"/>
<polyline points="650,250 795,630" fill="none" stroke="#172033" stroke-width="2.2" stroke-linecap="round" stroke-linejoin="round" marker-end="url(#arrow)"/>
<polyline points="540,370 540,290" fill="none" stroke="#172033" stroke-width="2.2" stroke-linecap="round" stroke-linejoin="round" marker-end="url(#arrow)"/>
<polyline points="540,450 540,610" fill="none" stroke="#172033" stroke-width="2.2" stroke-linecap="round" stroke-linejoin="round" marker-end="url(#arrow)"/>
<polyline points="1055,490 1220,490" fill="none" stroke="#172033" stroke-width="2.2" stroke-linecap="round" stroke-linejoin="round" marker-end="url(#arrow)"/>
<polyline points="1055,630 1220,630" fill="none" stroke="#172033" stroke-width="2.2" stroke-linecap="round" stroke-linejoin="round" marker-end="url(#arrow)"/>
</svg>
